<svg width="500" height="500" viewBox="0 0 500 500" fill="none" xmlns="http://www.w3.org/2000/svg">
<g clip-path="url(#clip0)">
<g filter="url(#filter0_dii)">
<rect x="68" y="68" width="364" height="364" rx="18" fill="url(#paint0_linear)"/>
<rect x="67.5" y="67.5" width="365" height="365" rx="18.5" stroke="#ABABAB"/>
</g>
<g clip-path="url(#clip1)">
<path d="M304.985 191.246C315.663 217.337 345.728 266.429 352.592 276.344C352.873 276.745 353.154 277.146 353.435 277.588C353.756 278.07 354.077 278.511 354.318 278.872C356.525 282.164 358.532 285.776 360.339 289.67L360.379 289.79L360.459 289.911C360.861 290.674 361.182 291.356 361.423 292.078L361.503 292.359L361.623 292.64C361.784 293.002 361.944 293.323 362.025 293.604L362.065 293.764L362.105 293.925C364.433 300.267 365.758 306.77 366.079 313.393C366.159 314.477 366.159 315.561 366.159 316.725C366.159 353.373 336.335 383.197 299.687 383.197C263.039 383.197 233.215 353.373 233.215 316.725C233.215 315.561 233.215 314.477 233.295 313.273C233.536 308.456 234.339 303.478 235.663 298.501C235.824 297.979 235.984 297.538 236.105 297.136L236.506 296.052C236.747 295.33 236.988 294.647 237.349 293.764C237.47 293.443 237.55 293.122 237.71 292.801L237.791 292.64L237.831 292.48C239.557 288.225 241.925 283.89 245.096 278.912C245.417 278.471 245.738 277.989 246.06 277.508C246.341 277.106 246.622 276.665 246.903 276.263C249.15 273.012 252.924 267.874 257.66 261.331C281.022 229.259 297.439 205.777 304.985 191.246ZM305.427 178C305.427 191.206 254.77 257.397 243.37 273.895C242.768 274.738 242.166 275.661 241.604 276.504C238.714 281 236.025 285.736 233.897 290.874C233.656 291.396 233.456 291.878 233.295 292.4C232.853 293.483 232.532 294.527 232.131 295.691C231.97 296.213 231.81 296.695 231.609 297.297C230.244 302.274 229.321 307.613 229.08 313.032C229 314.236 229 315.44 229 316.725C229 355.821 260.63 387.452 299.727 387.452C338.703 387.452 370.454 355.821 370.454 316.725C370.454 315.44 370.454 314.276 370.374 313.072C370.053 305.806 368.527 298.862 366.159 292.44C365.999 291.838 365.718 291.236 365.477 290.754C365.156 289.75 364.714 288.827 364.192 287.864C362.346 283.89 360.218 280.077 357.85 276.544C357.248 275.701 356.686 274.778 356.084 273.935C344.644 257.397 305.427 191.206 305.427 178Z" fill="#221F1F"/>
<path d="M268.897 287.825C268.897 283.691 270.182 280.158 272.751 277.349C275.32 274.499 278.691 273.094 282.866 273.094C287.041 273.094 290.412 274.499 292.981 277.349C295.55 280.199 296.835 283.691 296.835 287.825V291.598C296.835 295.733 295.55 299.185 292.981 302.035C290.412 304.885 287.081 306.29 282.946 306.29C278.732 306.29 275.32 304.885 272.751 302.035C270.182 299.185 268.897 295.733 268.897 291.598V287.825V287.825ZM273.634 291.598C273.634 294.488 274.437 296.937 276.042 298.944C277.648 300.951 279.936 301.995 282.946 301.995C285.836 301.995 288.084 300.991 289.69 298.944C291.295 296.897 292.058 294.448 292.058 291.598V287.825C292.058 284.935 291.255 282.487 289.65 280.439C288.044 278.392 285.796 277.349 282.826 277.349C279.855 277.349 277.608 278.392 276.002 280.439C274.396 282.487 273.594 284.975 273.594 287.825V291.598H273.634ZM286.679 339.566L283.067 337.198L317.908 281.403L321.521 283.771L286.679 339.566ZM304.823 328.006C304.823 323.871 306.107 320.419 308.676 317.569C311.245 314.719 314.617 313.314 318.751 313.314C322.926 313.314 326.298 314.719 328.907 317.569C331.476 320.419 332.76 323.911 332.76 328.006V331.819C332.76 335.953 331.476 339.446 328.907 342.295C326.338 345.105 322.966 346.55 318.872 346.55C314.657 346.55 311.245 345.145 308.716 342.295C306.147 339.486 304.863 335.993 304.863 331.819V328.006H304.823ZM309.519 331.819C309.519 334.709 310.322 337.158 311.928 339.205C313.533 341.252 315.821 342.255 318.832 342.255C321.722 342.255 324.01 341.252 325.615 339.205C327.221 337.158 328.024 334.709 328.024 331.819V328.006C328.024 325.035 327.221 322.546 325.615 320.539C324.01 318.532 321.722 317.529 318.751 317.529C315.821 317.529 313.533 318.532 311.928 320.539C310.322 322.546 309.519 325.035 309.519 327.965V331.819Z" fill="#231F20"/>
</g>
<circle cx="107.315" cy="107.315" r="14.5" fill="#FF5331"/>
</g>
<defs>
<filter id="filter0_dii" x="33" y="35" width="438" height="438" filterUnits="userSpaceOnUse" color-interpolation-filters="sRGB">
<feFlood flood-opacity="0" result="BackgroundImageFix"/>
<feColorMatrix in="SourceAlpha" type="matrix" values="0 0 0 0 0 0 0 0 0 0 0 0 0 0 0 0 0 0 127 0"/>
<feOffset dx="2" dy="4"/>
<feGaussianBlur stdDeviation="18"/>
<feColorMatrix type="matrix" values="0 0 0 0 0.221875 0 0 0 0 0.3015 0 0 0 0 0.375 0 0 0 0.2 0"/>
<feBlend mode="normal" in2="BackgroundImageFix" result="effect1_dropShadow"/>
<feBlend mode="normal" in="SourceGraphic" in2="effect1_dropShadow" result="shape"/>
<feColorMatrix in="SourceAlpha" type="matrix" values="0 0 0 0 0 0 0 0 0 0 0 0 0 0 0 0 0 0 127 0" result="hardAlpha"/>
<feOffset dy="4"/>
<feGaussianBlur stdDeviation="6"/>
<feComposite in2="hardAlpha" operator="arithmetic" k2="-1" k3="1"/>
<feColorMatrix type="matrix" values="0 0 0 0 1 0 0 0 0 1 0 0 0 0 1 0 0 0 1 0"/>
<feBlend mode="normal" in2="shape" result="effect2_innerShadow"/>
<feColorMatrix in="SourceAlpha" type="matrix" values="0 0 0 0 0 0 0 0 0 0 0 0 0 0 0 0 0 0 127 0" result="hardAlpha"/>
<feOffset dy="-4"/>
<feGaussianBlur stdDeviation="6"/>
<feComposite in2="hardAlpha" operator="arithmetic" k2="-1" k3="1"/>
<feColorMatrix type="matrix" values="0 0 0 0 0.11875 0 0 0 0 0.1905 0 0 0 0 0.375 0 0 0 0.15 0"/>
<feBlend mode="normal" in2="effect2_innerShadow" result="effect3_innerShadow"/>
</filter>
<linearGradient id="paint0_linear" x1="250" y1="31.6" x2="250" y2="459.3" gradientUnits="userSpaceOnUse">
<stop stop-color="white"/>
<stop offset="1" stop-color="white"/>
</linearGradient>
<clipPath id="clip0">
<rect width="500" height="500" fill="white"/>
</clipPath>
<clipPath id="clip1">
<rect width="141.414" height="209.412" fill="white" transform="translate(229 178)"/>
</clipPath>
</defs>
</svg>
