<svg width="500" height="500" viewBox="0 0 500 500" fill="none" xmlns="http://www.w3.org/2000/svg">
<g clip-path="url(#clip0)">
<rect x="250" y="145" width="137" height="259" fill="white"/>
<path d="M346.392 321.477L345.368 319.759L346.392 321.477ZM346.365 257.215L345.355 258.941L346.365 257.215ZM292.389 351.212L293.412 349.494L292.389 351.212ZM296.483 351.212L295.459 349.494L296.483 351.212ZM242.507 257.215L241.497 255.488L242.507 257.215ZM296.456 228.011L295.446 229.737L296.456 228.011ZM291.406 226.285L241.497 255.488L243.517 258.941L293.426 229.737L291.406 226.285ZM238.527 260.667V318.041H242.527V260.667H238.527ZM241.456 323.196L291.365 352.93L293.412 349.494L243.503 319.759L241.456 323.196ZM295.446 229.737L345.355 258.941L347.375 255.488L297.466 226.285L295.446 229.737ZM346.345 260.667V318.041H350.345V260.667H346.345ZM345.368 319.759L295.459 349.494L297.507 352.93L347.416 323.196L345.368 319.759ZM346.345 318.041C346.345 318.746 345.974 319.398 345.368 319.759L347.416 323.196C349.232 322.113 350.345 320.155 350.345 318.041H346.345ZM345.355 258.941C345.968 259.3 346.345 259.957 346.345 260.667H350.345C350.345 258.536 349.214 256.565 347.375 255.488L345.355 258.941ZM291.365 352.93C293.257 354.057 295.615 354.057 297.507 352.93L295.459 349.494C294.829 349.869 294.043 349.869 293.412 349.494L291.365 352.93ZM238.527 318.041C238.527 320.155 239.64 322.113 241.456 323.196L243.503 319.759C242.898 319.398 242.527 318.746 242.527 318.041H238.527ZM241.497 255.488C239.657 256.565 238.527 258.536 238.527 260.667H242.527C242.527 259.957 242.904 259.3 243.517 258.941L241.497 255.488ZM293.426 229.737C294.05 229.372 294.822 229.372 295.446 229.737L297.466 226.285C295.594 225.19 293.277 225.19 291.406 226.285L293.426 229.737Z" fill="#221F1F"/>
<path d="M204.911 236.537L213.433 254.009L224.304 237.893L204.911 236.537Z" fill="#221F1F"/>
<path d="M383.717 236.539L375.195 254.012L364.325 237.895L383.717 236.539Z" fill="#221F1F"/>
<line x1="210.76" y1="240.907" x2="293.76" y2="289.706" stroke="#221F1F" stroke-width="3"/>
<line y1="-1.5" x2="96.283" y2="-1.5" transform="matrix(-0.862042 0.506837 0.506837 0.862042 378.629 242.201)" stroke="#221F1F" stroke-width="3"/>
<path d="M294.277 393.274L284.557 376.439H303.997L294.277 393.274Z" fill="#221F1F"/>
<line x1="294.3" y1="379" x2="294.3" y2="293" stroke="#221F1F" stroke-width="3"/>
<line x1="243.018" y1="259.624" x2="294.267" y2="289.933" stroke="#221F1F" stroke-width="4"/>
<line y1="-2" x2="59.5399" y2="-2" transform="matrix(-0.860742 0.509042 0.509041 0.860742 347.099 261.346)" stroke="#221F1F" stroke-width="4"/>
<line x1="294.3" y1="289" x2="294.3" y2="351" stroke="#221F1F" stroke-width="4"/>
<g filter="url(#filter0_dii)">
<rect x="68" y="68" width="364" height="364" rx="18" fill="url(#paint0_linear)"/>
<rect x="67.5" y="67.5" width="365" height="365" rx="18.5" stroke="#ABABAB"/>
</g>
<g clip-path="url(#clip1)">
<path d="M235.408 238.765C237.445 234.635 238.604 229.983 238.604 225.051C238.604 208.009 224.823 194.175 207.847 194.175C190.871 194.175 177.09 208.009 177.09 225.051C177.09 238.885 186.157 250.634 198.7 254.524" stroke="#221F1F" stroke-width="2.92" stroke-miterlimit="10" stroke-linecap="round"/>
<path d="M241.521 250.433C246.834 243.376 249.949 234.554 249.949 225.01C249.949 201.673 231.096 182.706 207.809 182.706C184.521 182.706 165.708 201.673 165.708 225.051C165.708 246.744 182.005 264.669 202.975 267.075" stroke="#221F1F" stroke-width="1.41" stroke-miterlimit="10" stroke-linecap="round"/>
<path d="M246.712 260.339C255.14 250.996 260.253 238.645 260.253 225.052C260.253 196.02 236.806 172.441 207.847 172.441C178.887 172.441 155.44 195.98 155.44 225.052C155.44 254.123 178.887 277.662 207.847 277.662" stroke="#221F1F" stroke-width="0.89" stroke-miterlimit="10" stroke-linecap="round"/>
<path d="M386.038 359.825C383.003 364.196 378.649 366.682 373.935 368.807C357.279 376.266 340.622 383.724 323.966 391.102C320.451 392.666 316.896 394.11 313.38 395.593C309.506 397.278 305.472 398.08 301.238 397.518C300.638 397.398 300.039 397.278 299.44 397.157C275.713 385.448 251.907 373.739 228.18 361.99C222.069 358.983 207.449 352.246 206.371 351.605C201.258 348.477 198.023 342.542 199.66 336.407C200.14 334.522 201.058 332.718 202.057 331.034C205.412 325.34 212.043 323.014 218.274 325.5C225.384 328.307 232.454 331.475 239.564 334.482C240.643 334.923 241.801 335.284 243.758 335.966C240.483 329.109 237.607 323.014 234.731 316.999C232.534 312.307 230.337 307.576 228.18 302.884C225.224 297.07 222.268 291.255 219.313 285.441C213.92 274.333 208.568 263.226 203.175 252.119C202.736 251.196 202.257 250.274 201.897 249.312C199.341 243.216 196.225 237.322 194.308 230.946C190.633 218.555 195.386 215.147 204.453 212.501C213.96 209.734 219.912 220.601 222.229 224.33C223.986 227.137 241.841 263.627 251.467 282.754C251.747 283.356 252.746 284.158 253.225 284.037C259.456 282.434 265.687 280.669 271.839 278.945C278.469 277.341 285.14 275.777 291.771 274.093C306.23 270.444 320.57 266.394 335.11 263.186C341.022 261.903 347.572 262.264 351.607 268.278C352.446 269.522 364.828 296.388 370.221 308.779C371.099 310.583 371.938 312.428 372.777 314.272C376.971 324.979 381.125 335.685 385.359 346.392C387.117 350.722 387.876 355.173 386.038 359.825Z" stroke="#221F1F" stroke-width="3.69" stroke-miterlimit="10"/>
</g>
<circle cx="107.315" cy="107.315" r="14.5" fill="#FF5331"/>
</g>
<defs>
<filter id="filter0_dii" x="33" y="35" width="438" height="438" filterUnits="userSpaceOnUse" color-interpolation-filters="sRGB">
<feFlood flood-opacity="0" result="BackgroundImageFix"/>
<feColorMatrix in="SourceAlpha" type="matrix" values="0 0 0 0 0 0 0 0 0 0 0 0 0 0 0 0 0 0 127 0"/>
<feOffset dx="2" dy="4"/>
<feGaussianBlur stdDeviation="18"/>
<feColorMatrix type="matrix" values="0 0 0 0 0.221875 0 0 0 0 0.3015 0 0 0 0 0.375 0 0 0 0.2 0"/>
<feBlend mode="normal" in2="BackgroundImageFix" result="effect1_dropShadow"/>
<feBlend mode="normal" in="SourceGraphic" in2="effect1_dropShadow" result="shape"/>
<feColorMatrix in="SourceAlpha" type="matrix" values="0 0 0 0 0 0 0 0 0 0 0 0 0 0 0 0 0 0 127 0" result="hardAlpha"/>
<feOffset dy="4"/>
<feGaussianBlur stdDeviation="6"/>
<feComposite in2="hardAlpha" operator="arithmetic" k2="-1" k3="1"/>
<feColorMatrix type="matrix" values="0 0 0 0 1 0 0 0 0 1 0 0 0 0 1 0 0 0 1 0"/>
<feBlend mode="normal" in2="shape" result="effect2_innerShadow"/>
<feColorMatrix in="SourceAlpha" type="matrix" values="0 0 0 0 0 0 0 0 0 0 0 0 0 0 0 0 0 0 127 0" result="hardAlpha"/>
<feOffset dy="-4"/>
<feGaussianBlur stdDeviation="6"/>
<feComposite in2="hardAlpha" operator="arithmetic" k2="-1" k3="1"/>
<feColorMatrix type="matrix" values="0 0 0 0 0.11875 0 0 0 0 0.1905 0 0 0 0 0.375 0 0 0 0.15 0"/>
<feBlend mode="normal" in2="effect2_innerShadow" result="effect3_innerShadow"/>
</filter>
<linearGradient id="paint0_linear" x1="250" y1="31.6" x2="250" y2="459.3" gradientUnits="userSpaceOnUse">
<stop stop-color="white"/>
<stop offset="1" stop-color="white"/>
</linearGradient>
<clipPath id="clip0">
<rect width="500" height="500" fill="white"/>
</clipPath>
<clipPath id="clip1">
<rect width="233.831" height="227.443" fill="white" transform="translate(155 172)"/>
</clipPath>
</defs>
</svg>
